<?xml version="1.0" encoding="UTF-8" standalone="no"?>
<svg width="460px" height="482px" viewBox="0 0 460 482" version="1.1" xmlns="http://www.w3.org/2000/svg" xmlns:xlink="http://www.w3.org/1999/xlink">
    <!-- Generator: Sketch 3.7.2 (28276) - http://www.bohemiancoding.com/sketch -->
    <title>Logo_vertical</title>
    <desc>Created with Sketch.</desc>
    <defs>
        <polyline id="path-1" points="-3.37266268e-13 0.473908534 394.772685 0.473908534 394.772685 339.573083 -3.37266268e-13 339.573083"></polyline>
        <polyline id="path-3" points="-3.37266268e-13 0.473908534 394.772685 0.473908534 394.772685 339.573083 -3.37266268e-13 339.573083"></polyline>
    </defs>
    <g id="Page-1" stroke="none" stroke-width="1" fill="none" fill-rule="evenodd">
        <g id="Logo_vertical" transform="translate(-12.000000, 0.000000)">
            <path d="M298.683158,191.201032 L185.542312,191.201032 C173.797729,191.201032 164.27822,181.713796 164.27822,170.009029 L164.27822,170.009029 C164.27822,158.304261 173.797729,148.817026 185.542312,148.817026 L298.683158,148.817026 C310.427741,148.817026 319.94725,158.304261 319.94725,170.009029 L319.94725,170.009029 C319.94725,181.713796 310.427741,191.201032 298.683158,191.201032" id="Fill-1" fill="#F6593B"></path>
            <path d="M263.376827,113.630389 L263.376827,226.387668 C263.376827,238.092435 253.857318,247.579671 242.112735,247.579671 L242.112735,247.579671 C230.368152,247.579671 220.848643,238.092435 220.848643,226.387668 L220.848643,113.630389 C220.848643,101.925622 230.368152,92.4383858 242.112735,92.4383858 L242.112735,92.4383858 C253.857318,92.4383858 263.376827,101.925622 263.376827,113.630389" id="Fill-3" fill="#F6593B"></path>
            <g id="Group-7" transform="translate(72.000000, 0.000000)">
                <mask id="mask-2" fill="white">
                    <use xlink:href="#path-1"></use>
                </mask>
                <g id="Clip-6"></g>
                <path d="M177.200766,7.53700535 C177.200766,11.4385944 174.027596,14.6010064 170.112735,14.6010064 C166.197874,14.6010064 163.024704,11.4385944 163.024704,7.53700535 C163.024704,3.63541631 166.197874,0.473004342 170.112735,0.473004342 C174.027596,0.473004342 177.200766,3.63541631 177.200766,7.53700535" id="Fill-5" fill="#26ADF0" mask="url(#mask-2)"></path>
            </g>
            <path d="M249.200766,35.7930094 C249.200766,39.6945984 246.027596,42.8570104 242.112735,42.8570104 C238.197874,42.8570104 235.024704,39.6945984 235.024704,35.7930094 C235.024704,31.8914203 238.197874,28.7290084 242.112735,28.7290084 C246.027596,28.7290084 249.200766,31.8914203 249.200766,35.7930094" id="Fill-10" fill="#26ADF0"></path>
            <g id="Group-14" transform="translate(72.000000, 0.000000)">
                <mask id="mask-4" fill="white">
                    <use xlink:href="#path-3"></use>
                </mask>
                <g id="Clip-13"></g>
                <path d="M268.592358,89.1654363 C294.02081,119.894406 305.24825,162.728247 292.262978,207.695983 C280.096515,249.824554 245.91066,282.298615 203.250923,293.001989 C118.475808,314.27763 42.5284106,250.98192 42.5284106,170.009255 C42.5284106,99.7851729 99.6499988,42.8572364 170.112962,42.8572364 L170.112962,28.60211 C170.112962,27.5893409 167.995539,27.8457894 166.881484,26.8132155 C165.424463,25.4627606 164.877653,22.8216271 164.877653,21.4970741 C164.877653,20.0846131 165.36555,18.0262203 166.881484,16.6407086 C167.863751,15.7429499 170.112962,15.5223194 170.112962,14.6070987 L170.112962,0.47323039 C61.2317387,0.47323039 -23.7565837,102.416372 6.00407228,215.754595 C21.4888675,274.726006 68.8595938,320.49169 128.36276,334.594827 C231.235602,358.978628 323.711152,290.74603 338.182076,196.366455 C339.980734,181.720803 352.641658,179.005966 389.630971,193.133968 C392.593201,194.264208 395.559967,191.483818 394.584654,188.472858 C385.228454,159.58618 347.517863,60.4324709 274.734562,75.7314018 C264.471094,77.4945764 262.683776,81.8957316 268.592358,89.1654363 Z" id="Fill-12" fill="#26ADF0" mask="url(#mask-4)"></path>
            </g>
            <text id="medGo" font-family="Quicksand-Regular, Quicksand" font-size="130" font-weight="normal" letter-spacing="1.58402169">
                <tspan x="0" y="478" fill="#545D70">med</tspan>
                <tspan x="293.352065" y="478" font-family="Quicksand-Bold, Quicksand" font-weight="bold" letter-spacing="1.7" fill="#F6593B">Go</tspan>
            </text>
        </g>
    </g>
</svg>