<?xml version="1.0" encoding="UTF-8" standalone="no"?>
<svg width="105px" height="105px" viewBox="0 0 105 105" version="1.1" xmlns="http://www.w3.org/2000/svg" xmlns:xlink="http://www.w3.org/1999/xlink">
    <!-- Generator: Sketch 3.6.1 (26313) - http://www.bohemiancoding.com/sketch -->
    <title>CALENDAR</title>
    <desc>Created with Sketch.</desc>
    <defs></defs>
    <g id="Page-1" stroke="none" stroke-width="1" fill="none" fill-rule="evenodd">
        <g id="Logos" transform="translate(-35.000000, -73.000000)">
            <g id="CALENDAR" transform="translate(35.000000, 73.000000)">
                <g id="Group-6">
                    <path d="M79.7980769,12.4827378 C79.7980769,8.35489382 76.4903846,5.05261863 72.3557692,5.05261863 L33.0603846,5.05261863 L7.44230769,4.91502384 C3.30769231,4.91502384 0,8.21729902 0,12.345143 L0,12.4827378 L0,19.7752622 L0,19.912857 L79.9358974,19.912857 L79.7980769,12.4827378 Z" id="Fill-8" fill="#98A1B3"></path>
                    <path d="M79.9358974,72.3364756 C79.9358974,76.4643196 76.6282051,79.7665948 72.4935897,79.7665948 L7.44230769,79.7665948 C3.30769231,79.7665948 0,76.4643196 0,72.3364756 L0,19.912857 L79.9358974,19.912857 L79.9358974,72.3364756 Z" id="Fill-10" fill="#98A1B3"></path>
                    <path d="M26.1858974,29.9571398 L38.7275641,29.9571398 L38.7275641,41.2399133 L26.1858974,41.2399133 L26.1858974,29.9571398 Z" id="Fill-12" fill="#26ADF0"></path>
                    <path d="M26.1858974,43.5790249 L38.7275641,43.5790249 L38.7275641,54.8617985 L26.1858974,54.8617985 L26.1858974,43.5790249 Z" id="Fill-14" fill="#FFFFFF"></path>
                    <path d="M41.2083333,43.5790249 L53.75,43.5790249 L53.75,54.8617985 L41.2083333,54.8617985 L41.2083333,43.5790249 Z" id="Fill-15" fill="#FFFFFF"></path>
                    <path d="M56.2307692,43.5790249 L68.7724359,43.5790249 L68.7724359,54.8617985 L56.2307692,54.8617985 L56.2307692,43.5790249 Z" id="Fill-16" fill="#26ADF0"></path>
                    <path d="M23.7051282,29.9571398 L9.92307692,29.9571398 L9.92307692,41.2399133 L23.7051282,41.2399133 L23.7051282,29.9571398 Z" id="Fill-17" fill="#FFFFFF"></path>
                    <path d="M41.2083333,29.9571398 L53.75,29.9571398 L53.75,41.2399133 L41.2083333,41.2399133 L41.2083333,29.9571398 Z" id="Fill-18" fill="#FFFFFF"></path>
                    <path d="M56.2307692,29.9571398 L68.7724359,29.9571398 L68.7724359,41.2399133 L56.2307692,41.2399133 L56.2307692,29.9571398 Z" id="Fill-19" fill="#FFFFFF"></path>
                    <path d="M9.92307692,43.5790249 L23.7051282,43.5790249 L23.7051282,54.8617985 L9.92307692,54.8617985 L9.92307692,43.5790249 Z" id="Fill-20" fill="#FFFFFF"></path>
                    <path d="M9.92307692,57.3385049 L23.7051282,57.3385049 L23.7051282,69.8596316 L9.92307692,69.8596316 L9.92307692,57.3385049 Z" id="Fill-21" fill="#26ADF0"></path>
                    <path d="M26.1858974,57.3385049 L38.7275641,57.3385049 L38.7275641,69.8596316 L26.1858974,69.8596316 L26.1858974,57.3385049 Z" id="Fill-22" fill="#FFFFFF"></path>
                    <path d="M41.2083333,57.3385049 L53.75,57.3385049 L53.75,69.8596316 L41.2083333,69.8596316 L41.2083333,57.3385049 Z" id="Fill-23" fill="#FFFFFF"></path>
                    <path d="M56.2307692,57.3385049 L68.7724359,57.3385049 L68.7724359,69.8596316 L56.2307692,69.8596316 L56.2307692,57.3385049 Z" id="Fill-24" fill="#FFFFFF"></path>
                    <path d="M17.5032051,11.2443846 C17.5032051,13.3083066 15.849359,14.9594442 13.7820513,14.9594442 C11.7147436,14.9594442 10.0608974,13.3083066 10.0608974,11.2443846 L10.0608974,3.81426544 C10.0608974,1.75034345 11.7147436,0.0992058505 13.7820513,0.0992058505 C15.849359,0.0992058505 17.5032051,1.75034345 17.5032051,3.81426544 L17.5032051,11.2443846 Z" id="Fill-25" fill="#545D70"></path>
                    <path d="M70.0128205,11.2443846 C70.0128205,13.3083066 68.3589744,14.9594442 66.2916667,14.9594442 C64.224359,14.9594442 62.5705128,13.3083066 62.5705128,11.2443846 L62.5705128,3.81426544 C62.5705128,1.75034345 64.224359,0.0992058505 66.2916667,0.0992058505 C68.3589744,0.0992058505 70.0128205,1.75034345 70.0128205,3.81426544 L70.0128205,11.2443846 Z" id="Fill-26" fill="#545D70"></path>
                    <path d="M43.6891026,11.2443846 C43.6891026,13.3083066 42.0352564,14.9594442 39.9679487,14.9594442 C37.900641,14.9594442 36.2467949,13.3083066 36.2467949,11.2443846 L36.2467949,3.81426544 C36.2467949,1.75034345 37.900641,0.0992058505 39.9679487,0.0992058505 C42.0352564,0.0992058505 43.6891026,1.75034345 43.6891026,3.81426544 L43.6891026,11.2443846 Z" id="Fill-27" fill="#545D70"></path>
                </g>
                <path d="M49.3876824,64.992821 C49.3876824,56.3652992 56.3921452,49.3723079 65.0338197,49.3723079 C73.6754943,49.3723079 80.6799571,56.3652992 80.6799571,64.992821 C80.6799571,69.1716207 79.0264733,72.9567834 76.3503579,75.7597283 C76.248971,75.8334571 76.1488357,75.9071859 76.0574622,75.9984097 C75.9673405,76.0896335 75.892239,76.1896048 75.8183893,76.2908257 C73.0108464,78.9625583 69.2194744,80.6133341 65.0338197,80.6133341 C56.3921452,80.6133341 49.3876824,73.6203428 49.3876824,64.992821 M103.624705,96.8899088 L85.7405437,79.0350375 C88.4692301,75.0324372 90.0676395,70.2000753 90.0676395,64.992821 C90.0676395,51.189286 78.8599984,40 65.0338197,40 C51.2076411,40 40,51.189286 40,64.992821 C40,78.796356 51.2076411,89.985642 65.0338197,89.985642 C70.2508678,89.985642 75.0936602,88.3886007 79.1028264,85.6631336 L96.9869872,103.516755 C98.8194628,105.347479 101.792229,105.347479 103.624705,103.516755 C105.458432,101.687281 105.458432,98.7193833 103.624705,96.8899088" id="Fill-28" fill="#545D70"></path>
            </g>
        </g>
    </g>
</svg>