<?xml version="1.0" encoding="UTF-8" standalone="no"?>
<svg width="90px" height="90px" viewBox="0 0 90 90" version="1.1" xmlns="http://www.w3.org/2000/svg" xmlns:xlink="http://www.w3.org/1999/xlink">
    <!-- Generator: Sketch 3.6.1 (26313) - http://www.bohemiancoding.com/sketch -->
    <title>CHOICE</title>
    <desc>Created with Sketch.</desc>
    <defs></defs>
    <g id="Page-1" stroke="none" stroke-width="1" fill="none" fill-rule="evenodd">
        <g id="Logos" transform="translate(-238.000000, -73.000000)">
            <g id="CHOICE" transform="translate(238.000000, 73.000000)">
                <circle id="Oval-49" fill="#98A1B3" cx="45" cy="45" r="45"></circle>
                <path d="M45.5482125,33.8767875 C40.6628395,33.8767875 36.6481598,26.4489524 36.6481598,21.6555435 C36.6481598,16.7262936 40.6628395,12.6744436 45.5482125,12.6744436 C50.4335856,12.6744436 54.4482653,16.7262936 54.4482653,21.6555435 C54.4482653,26.5168729 50.4335856,33.8767875 45.5482125,33.8767875 Z M45.0499641,55.9657344 C39.3612137,55.9657344 33.9406236,54.2098213 29.3907268,50.7659158 C29.3234109,50.2938123 29.3234109,49.888516 29.3234109,49.4832196 C29.3234109,42.0564979 36.3507557,35.911359 45.0499641,35.911359 C53.7491725,35.911359 60.7765173,42.0564979 60.7765173,49.4832196 C60.7765173,49.888516 60.7765173,50.2938123 60.7092013,50.7659158 C56.1593045,54.1430142 50.7387145,55.9657344 45.0499641,55.9657344 Z" id="Rectangle-323-Copy-5" stroke="#98A1B3" stroke-width="3" fill="#FFFFFF"></path>
                <path d="M26.3498016,45.7326978 C21.4644286,45.7326978 17.4497489,38.3048627 17.4497489,33.5114539 C17.4497489,28.582204 21.4644286,24.5303539 26.3498016,24.5303539 C31.2351747,24.5303539 35.2498544,28.582204 35.2498544,33.5114539 C35.2498544,38.3727833 31.2351747,45.7326978 26.3498016,45.7326978 Z M25.8515532,67.8216447 C20.1628028,67.8216447 14.7422127,66.0657317 10.192316,62.6218261 C10.125,62.1497227 10.125,61.7444263 10.125,61.33913 C10.125,53.9124083 17.1523448,47.7672693 25.8515532,47.7672693 C34.5507616,47.7672693 41.5781064,53.9124083 41.5781064,61.33913 C41.5781064,61.7444263 41.5781064,62.1497227 41.5107904,62.6218261 C36.9608937,65.9989246 31.5403036,67.8216447 25.8515532,67.8216447 Z" id="Rectangle-323-Copy-4" stroke="#98A1B3" stroke-width="3" fill="#FFFFFF"></path>
                <path d="M64.04418,45.7326978 C59.158807,45.7326978 55.1441273,38.3048627 55.1441273,33.5114539 C55.1441273,28.582204 59.158807,24.5303539 64.04418,24.5303539 C68.9295531,24.5303539 72.9442328,28.582204 72.9442328,33.5114539 C72.9442328,38.3727833 68.9295531,45.7326978 64.04418,45.7326978 Z M63.5459316,67.8216447 C57.8571812,67.8216447 52.4365911,66.0657317 47.8866944,62.6218261 C47.8193784,62.1497227 47.8193784,61.7444263 47.8193784,61.33913 C47.8193784,53.9124083 54.8467232,47.7672693 63.5459316,47.7672693 C72.24514,47.7672693 79.2724848,53.9124083 79.2724848,61.33913 C79.2724848,61.7444263 79.2724848,62.1497227 79.2051688,62.6218261 C74.6552721,65.9989246 69.234682,67.8216447 63.5459316,67.8216447 Z" id="Rectangle-323-Copy" stroke="#98A1B3" stroke-width="3" fill="#FFFFFF"></path>
            </g>
        </g>
    </g>
</svg>