<?xml version="1.0" encoding="UTF-8" standalone="no"?>
<svg width="45px" height="46px" viewBox="0 0 45 46" version="1.1" xmlns="http://www.w3.org/2000/svg" xmlns:xlink="http://www.w3.org/1999/xlink">
    <!-- Generator: Sketch 3.8.3 (29802) - http://www.bohemiancoding.com/sketch -->
    <title>computer_icon</title>
    <desc>Created with Sketch.</desc>
    <defs></defs>
    <g id="Page-1" stroke="none" stroke-width="1" fill="none" fill-rule="evenodd">
        <g id="Artboard-3" transform="translate(-376.000000, -137.000000)" fill="#26ADF0">
            <g id="computer_icon" transform="translate(376.000000, 137.000000)">
                <g id="Group">
                    <path d="M40.32,40.4872727 C40.2138,40.3340909 40.04055,40.2427273 39.85515,40.2427273 L5.71365,40.2427273 C5.5458,40.2427273 5.38695,40.3172727 5.27895,40.4468182 L1.8675,44.5368182 C1.72485,44.7081818 1.69335,44.9468182 1.7865,45.1495455 C1.8801,45.3518182 2.0808,45.4813636 2.3022,45.4813636 L42.69735,45.4813636 C42.9102,45.4813636 43.10415,45.3618182 43.2027,45.1718182 C43.30035,44.9813636 43.2855,44.7518182 43.1631,44.5768182 L40.32,40.4872727 L40.32,40.4872727 Z M39.24045,40.9663636 L39.5649,41.5309091 L38.2212,41.5309091 L37.94175,40.9663636 L39.24045,40.9663636 L39.24045,40.9663636 Z M24.7842,40.9663636 L26.16165,40.9663636 L26.1855,41.5309091 L24.7644,41.5309091 L24.7842,40.9663636 L24.7842,40.9663636 Z M24.72975,42.4604545 L26.22375,42.4604545 L26.2485,43.0245455 L24.7095,43.0245455 L24.72975,42.4604545 L24.72975,42.4604545 Z M22.1634,40.9663636 L23.5368,40.9663636 L23.5008,41.5309091 L22.0824,41.5309091 L22.1634,40.9663636 L22.1634,40.9663636 Z M21.9501,42.4604545 L23.4414,42.4604545 L23.4045,43.0245455 L21.86955,43.0245455 L21.9501,42.4604545 L21.9501,42.4604545 Z M19.54485,40.9663636 L20.90925,40.9663636 L20.81295,41.5309091 L19.40445,41.5309091 L19.54485,40.9663636 L19.54485,40.9663636 Z M19.1727,42.4604545 L20.65455,42.4604545 L20.55825,43.0245455 L19.03185,43.0245455 L19.1727,42.4604545 L19.1727,42.4604545 Z M16.929,40.9663636 L18.27765,40.9663636 L18.1215,41.5309091 L16.72875,41.5309091 L16.929,40.9663636 L16.929,40.9663636 Z M16.398,42.4604545 L17.8641,42.4604545 L17.7084,43.0245455 L16.19775,43.0245455 L16.398,42.4604545 L16.398,42.4604545 Z M14.31585,40.9663636 L15.64335,40.9663636 L15.42735,41.5309091 L14.05575,41.5309091 L14.31585,40.9663636 L14.31585,40.9663636 Z M13.62645,42.4604545 L15.07095,42.4604545 L14.8554,43.0245455 L13.3659,43.0245455 L13.62645,42.4604545 L13.62645,42.4604545 Z M11.7054,40.9663636 L13.00635,40.9663636 L12.7305,41.5309091 L11.385,41.5309091 L11.7054,40.9663636 L11.7054,40.9663636 Z M9.0972,40.9663636 L10.3671,40.9663636 L10.03095,41.5309091 L8.7165,41.5309091 L9.0972,40.9663636 L9.0972,40.9663636 Z M6.49035,40.9663636 L7.7256,40.9663636 L7.33005,41.5309091 L6.05025,41.5309091 L6.49035,40.9663636 L6.49035,40.9663636 Z M5.26725,44.4709091 L3.7557,44.4709091 L4.1958,43.9072727 L5.66235,43.9072727 L5.26725,44.4709091 L5.26725,44.4709091 Z M6.282,43.0245455 L4.88475,43.0245455 L5.32485,42.4604545 L6.678,42.4604545 L6.282,43.0245455 L6.282,43.0245455 Z M8.2809,44.4709091 L6.7347,44.4709091 L7.11495,43.9072727 L8.6166,43.9072727 L8.2809,44.4709091 L8.2809,44.4709091 Z M9.1422,43.0245455 L7.70985,43.0245455 L8.0901,42.4604545 L9.4779,42.4604545 L9.1422,43.0245455 L9.1422,43.0245455 Z M11.29275,44.4709091 L9.71595,44.4709091 L10.0359,43.9072727 L11.5686,43.9072727 L11.29275,44.4709091 L11.29275,44.4709091 Z M12.00015,43.0245455 L10.5372,43.0245455 L10.85715,42.4604545 L12.27555,42.4604545 L12.00015,43.0245455 L12.00015,43.0245455 Z M12.69855,44.4709091 L12.95865,43.9072727 L26.2863,43.9072727 L26.31015,44.4709091 L12.69855,44.4709091 L12.69855,44.4709091 Z M27.4095,40.9663636 L28.78335,40.9663636 L28.86705,41.5309091 L27.44955,41.5309091 L27.4095,40.9663636 L27.4095,40.9663636 Z M27.51435,42.4604545 L30.3012,42.4604545 L30.0393,40.9663636 L31.40235,40.9663636 L31.9374,43.0245455 L27.5535,43.0245455 L27.51435,42.4604545 L27.51435,42.4604545 Z M27.65385,44.4709091 L27.61425,43.9072727 L29.21985,43.9072727 L29.30355,44.4709091 L27.65385,44.4709091 L27.65385,44.4709091 Z M30.65535,44.4709091 L30.5559,43.9072727 L32.15115,43.9072727 L32.29425,44.4709091 L30.65535,44.4709091 L30.65535,44.4709091 Z M32.67,40.9663636 L34.0182,40.9663636 L34.22205,41.5309091 L32.82885,41.5309091 L32.67,40.9663636 L32.67,40.9663636 Z M33.09165,42.4604545 L34.55685,42.4604545 L34.7598,43.0245455 L33.2505,43.0245455 L33.09165,42.4604545 L33.09165,42.4604545 Z M33.65955,44.4709091 L33.50025,43.9072727 L35.07975,43.9072727 L35.2827,44.4709091 L33.65955,44.4709091 L33.65955,44.4709091 Z M35.30475,40.9663636 L36.63,40.9663636 L36.8937,41.5309091 L35.52345,41.5309091 L35.30475,40.9663636 L35.30475,40.9663636 Z M35.8848,42.4604545 L37.32795,42.4604545 L37.59165,43.0245455 L36.1035,43.0245455 L35.8848,42.4604545 L35.8848,42.4604545 Z M36.666,44.4709091 L36.4473,43.9072727 L38.00475,43.9072727 L38.26755,44.4709091 L36.666,44.4709091 L36.666,44.4709091 Z M38.68065,42.4604545 L40.09725,42.4604545 L40.4217,43.0245455 L38.9592,43.0245455 L38.68065,42.4604545 L38.68065,42.4604545 Z M39.6756,44.4709091 L39.39705,43.9072727 L40.92705,43.9072727 L41.2506,44.4709091 L39.6756,44.4709091 L39.6756,44.4709091 Z" id="Shape"></path>
                    <path d="M14.99985,38.4436364 C14.45265,38.9963636 15.3126,39.3122727 15.3126,39.3122727 L22.40055,39.3122727 L22.42575,39.3122727 L22.45095,39.3122727 L29.53845,39.3122727 C29.53845,39.3122727 30.39795,38.9963636 29.8512,38.4436364 C29.30355,37.8909091 27.8181,37.4959091 27.66285,35.1272727 C27.6507,34.9413636 27.6579,34.1986364 27.66015,33.2322727 L17.19045,33.2322727 C17.1927,34.1986364 17.20035,34.9413636 17.1882,35.1272727 C17.03205,37.4959091 15.5466,37.8909091 14.99985,38.4436364 L14.99985,38.4436364 Z" id="Shape"></path>
                    <path d="M43.2,0 L1.8,0 C0.81,0 0,0.818181818 0,1.81818182 L0,30.8731818 C0,31.8731818 0.81,32.6913636 1.8,32.6913636 L43.2,32.6913636 C44.19,32.6913636 45,31.8731818 45,30.8731818 L45,1.81818182 C45,0.818181818 44.19,0 43.2,0 L43.2,0 Z M22.7772,31.495 C22.02165,31.495 21.4092,30.8768182 21.4092,30.1136364 C21.4092,29.3504545 22.02165,28.7318182 22.7772,28.7318182 C23.53275,28.7318182 24.1452,29.3504545 24.1452,30.1136364 C24.1452,30.8768182 23.53275,31.495 22.7772,31.495 L22.7772,31.495 Z M42.59295,25.5736364 L2.49255,25.5736364 L2.49255,2.51772727 L42.59295,2.51772727 L42.59295,25.5736364 L42.59295,25.5736364 Z" id="Shape"></path>
                </g>
            </g>
        </g>
    </g>
</svg>