<?xml version="1.0" encoding="UTF-8" standalone="no"?>
<svg width="190px" height="50px" viewBox="0 0 190 50" version="1.1" xmlns="http://www.w3.org/2000/svg" xmlns:xlink="http://www.w3.org/1999/xlink">
    <!-- Generator: Sketch 3.7 (28169) - http://www.bohemiancoding.com/sketch -->
    <title>Logo_4</title>
    <desc>Created with Sketch.</desc>
    <defs>
        <polyline id="path-1" points="0 0.327152318 57.8940834 0.327152318 57.8940834 50 0 50"></polyline>
        <polyline id="path-3" points="0 0.327152318 57.8997211 0.327152318 57.8997211 50 0 50"></polyline>
    </defs>
    <g id="Page-1" stroke="none" stroke-width="1" fill="none" fill-rule="evenodd">
        <g id="Group" transform="translate(0.000000, -86.000000)">
            <g id="Logo_4" transform="translate(0.000000, 86.000000)">
                <g id="Logo">
                    <path d="M33.2434693,28.2657616 L16.6511725,28.2657616 C14.9288095,28.2657616 13.5327574,26.8760265 13.5327574,25.161457 L13.5327574,25.161457 C13.5327574,23.4468874 14.9288095,22.0571523 16.6511725,22.0571523 L33.2434693,22.0571523 C34.9658323,22.0571523 36.3618844,23.4468874 36.3618844,25.161457 L36.3618844,25.161457 C36.3618844,26.8760265 34.9658323,28.2657616 33.2434693,28.2657616" id="Fill-1" fill="#F6593B"></path>
                    <path d="M28.065736,16.9028477 L28.065736,33.4200662 C28.065736,35.1346358 26.6696839,36.5243709 24.9473209,36.5243709 L24.9473209,36.5243709 C23.2249579,36.5243709 21.8289058,35.1346358 21.8289058,33.4200662 L21.8289058,16.9028477 C21.8289058,15.1882781 23.2249579,13.798543 24.9473209,13.798543 L24.9473209,13.798543 C26.6696839,13.798543 28.065736,15.1882781 28.065736,16.9028477" id="Fill-3" fill="#F6593B"></path>
                    <g id="Group-7">
                        <mask id="mask-2" fill="white">
                            <use xlink:href="#path-1"></use>
                        </mask>
                        <g id="Clip-6"></g>
                        <path d="M25.9867926,1.36178808 C25.9867926,1.93331126 25.5214419,2.39655629 24.9473209,2.39655629 C24.3731999,2.39655629 23.9078492,1.93331126 23.9078492,1.36178808 C23.9078492,0.790264901 24.3731999,0.327019868 24.9473209,0.327019868 C25.5214419,0.327019868 25.9867926,0.790264901 25.9867926,1.36178808" id="Fill-5" fill="#26ADF0" mask="url(#mask-2)"></path>
                    </g>
                    <path d="M25.9867926,5.50086093 C25.9867926,6.07238411 25.5214419,6.53562914 24.9473209,6.53562914 C24.3731999,6.53562914 23.9078492,6.07238411 23.9078492,5.50086093 C23.9078492,4.92933775 24.3731999,4.46609272 24.9473209,4.46609272 C25.5214419,4.46609272 25.9867926,4.92933775 25.9867926,5.50086093" id="Fill-10" fill="#26ADF0"></path>
                    <g id="Group-14">
                        <mask id="mask-4" fill="white">
                            <use xlink:href="#path-3"></use>
                        </mask>
                        <g id="Clip-13"></g>
                        <path d="M39.3933603,13.319106 C43.122849,17.8204305 44.7695325,24.0949338 42.8650349,30.6820199 C41.0806287,36.8532119 36.0667269,41.6101656 29.8099949,43.1780464 C17.37637,46.2946026 6.23747083,37.0227483 6.23747083,25.1614901 C6.23747083,14.8747351 14.6152643,6.53566225 24.9497835,6.53566225 L24.9497835,4.44750404 C24.9497835,4.29914885 24.6392297,4.33671464 24.4758356,4.18545833 C24.2621403,3.98763732 24.1819418,3.60075163 24.1819418,3.40672484 C24.1819418,3.1998209 24.2534997,2.8982978 24.4758356,2.6953415 C24.6199008,2.56383357 24.9497835,2.53151457 24.9497835,2.39744872 L24.9497835,0.32705298 C8.98061271,0.32705298 -3.48428253,15.2601656 0.880593119,31.8624834 C3.15168572,40.500894 10.0993595,47.2048675 18.8264495,49.2707616 C33.9143951,52.8426159 47.4774121,42.8475828 49.5998041,29.0224172 C49.8636062,26.877053 51.7205329,26.4793709 57.1456066,28.5489073 C57.5800649,28.7144702 58.0151886,28.3071854 57.8721433,27.8661258 C56.4999071,23.6346689 50.9690464,9.11016556 40.2942126,11.3512252 C38.788911,11.6095033 38.5267723,12.2542053 39.3933603,13.319106 Z" id="Fill-12" fill="#26ADF0" mask="url(#mask-4)"></path>
                    </g>
                </g>
                <text id="docAdoc" font-family="Quicksand-Regular, Quicksand" font-size="26.4705882" font-weight="normal" letter-spacing="1">
                    <tspan x="70.3846154" y="31.3076923" fill="#FFFFFF">doc</tspan>
                    <tspan x="122.514027" y="31.3076923" font-family="Quicksand-Bold, Quicksand" font-weight="bold" fill="#F6593B">A</tspan>
                    <tspan x="140.614027" y="31.3076923" fill="#FFFFFF">doc</tspan>
                </text>
            </g>
        </g>
    </g>
</svg>