<?xml version="1.0" encoding="UTF-8" standalone="no"?>
<svg width="483px" height="130px" viewBox="0 0 483 130" version="1.1" xmlns="http://www.w3.org/2000/svg" xmlns:xlink="http://www.w3.org/1999/xlink">
    <!-- Generator: Sketch 3.7 (28169) - http://www.bohemiancoding.com/sketch -->
    <title>Logo_4</title>
    <desc>Created with Sketch.</desc>
    <defs>
        <polyline id="path-1" points="0 0.850596026 150.524617 0.850596026 150.524617 130 0 130"></polyline>
        <polyline id="path-3" points="0 0.850596026 150.524617 0.850596026 150.524617 130 0 130"></polyline>
    </defs>
    <g id="Page-1" stroke="none" stroke-width="1" fill="none" fill-rule="evenodd">
        <g id="Group" transform="translate(0.000000, -148.000000)">
            <g id="Logo_4" transform="translate(0.000000, 148.000000)">
                <g id="Logo">
                    <path d="M86.4330202,73.4909801 L43.2930485,73.4909801 C38.8149046,73.4909801 35.1851692,69.8776689 35.1851692,65.4197881 L35.1851692,65.4197881 C35.1851692,60.9619073 38.8149046,57.348596 43.2930485,57.348596 L86.4330202,57.348596 C90.9111641,57.348596 94.5408995,60.9619073 94.5408995,65.4197881 L94.5408995,65.4197881 C94.5408995,69.8776689 90.9111641,73.4909801 86.4330202,73.4909801" id="Fill-1" fill="#F6593B"></path>
                    <path d="M72.9709136,43.947404 L72.9709136,86.8921722 C72.9709136,91.350053 69.3411782,94.9633642 64.8630343,94.9633642 L64.8630343,94.9633642 C60.3848904,94.9633642 56.755155,91.350053 56.755155,86.8921722 L56.755155,43.947404 C56.755155,39.4895232 60.3848904,35.8762119 64.8630343,35.8762119 L64.8630343,35.8762119 C69.3411782,35.8762119 72.9709136,39.4895232 72.9709136,43.947404" id="Fill-3" fill="#F6593B"></path>
                    <g id="Group-7">
                        <mask id="mask-2" fill="white">
                            <use xlink:href="#path-1"></use>
                        </mask>
                        <g id="Clip-6"></g>
                        <path d="M67.5656607,3.54064901 C67.5656607,5.02660927 66.3557489,6.23104636 64.8630343,6.23104636 C63.3703197,6.23104636 62.1604079,5.02660927 62.1604079,3.54064901 C62.1604079,2.05468874 63.3703197,0.850251656 64.8630343,0.850251656 C66.3557489,0.850251656 67.5656607,2.05468874 67.5656607,3.54064901" id="Fill-5" fill="#26ADF0" mask="url(#mask-2)"></path>
                    </g>
                    <path d="M67.5656607,14.3022384 C67.5656607,15.7881987 66.3557489,16.9926358 64.8630343,16.9926358 C63.3703197,16.9926358 62.1604079,15.7881987 62.1604079,14.3022384 C62.1604079,12.8162781 63.3703197,11.6118411 64.8630343,11.6118411 C66.3557489,11.6118411 67.5656607,12.8162781 67.5656607,14.3022384" id="Fill-10" fill="#26ADF0"></path>
                    <g id="Group-14">
                        <mask id="mask-4" fill="white">
                            <use xlink:href="#path-3"></use>
                        </mask>
                        <g id="Clip-13"></g>
                        <path d="M102.412764,34.6296755 C112.10849,46.3331192 116.38945,62.6468278 111.438239,79.7732517 C106.799235,95.818351 93.7643592,108.18643 77.4984399,112.262921 C45.1741629,120.365967 16.2158451,96.2591457 16.2158451,65.4198742 C16.2158451,38.6743113 37.9959871,16.9927219 64.8631208,16.9927219 L64.8631208,0.850337748 C23.3473195,0.850337748 -9.05825247,39.6764305 2.28931918,82.842457 C8.19358498,105.302325 26.2557779,122.732656 48.9440025,128.10398 C88.1688415,137.390801 123.429252,111.403715 128.946934,75.4582848 C129.632752,69.8803377 134.460292,68.8463642 148.56411,74.2271589 C149.693592,74.6576225 150.824803,73.5986821 150.452922,72.4519272 C146.885455,61.4501391 132.506617,23.6864305 104.754752,29.5131854 C100.841349,30.1847086 100.159854,31.8609338 102.412764,34.6296755 Z" id="Fill-12" fill="#26ADF0" mask="url(#mask-4)"></path>
                        <path d="M67.5656607,8.92144371 C67.5656607,10.407404 66.3557489,11.6118411 64.8630343,11.6118411 C63.3703197,11.6118411 62.1604079,10.407404 62.1604079,8.92144371 C62.1604079,7.43548344 63.3703197,6.23104636 64.8630343,6.23104636 C66.3557489,6.23104636 67.5656607,7.43548344 67.5656607,8.92144371" id="Fill-8" fill="#FFFFFF" mask="url(#mask-4)"></path>
                    </g>
                </g>
                <text id="docAdoc" font-family="Quicksand-Bold, Quicksand" font-size="68.8235294" font-weight="bold" letter-spacing="1">
                    <tspan x="183" y="84" fill="#FFFFFF">doc</tspan>
                    <tspan x="313.736471" y="84" fill="#F6593B">A</tspan>
                    <tspan x="359.196471" y="84" fill="#FFFFFF">do</tspan>
                    <tspan x="449.634706" y="84" fill="#FFFFFF">c</tspan>
                </text>
            </g>
        </g>
    </g>
</svg>