<?xml version="1.0" encoding="UTF-8" standalone="no"?>
<svg width="1040px" height="258px" viewBox="0 0 1040 258" version="1.1" xmlns="http://www.w3.org/2000/svg" xmlns:xlink="http://www.w3.org/1999/xlink">
    <!-- Generator: Sketch 3.7.1 (28215) - http://www.bohemiancoding.com/sketch -->
    <title>Logos_large</title>
    <desc>Created with Sketch.</desc>
    <defs>
        <polyline id="path-1" points="0 0.359705353 299.249106 0.359705353 299.249106 257.742258 0 257.742258"></polyline>
        <polyline id="path-3" points="0 0.359705353 299.249106 0.359705353 299.249106 257.742258 0 257.742258"></polyline>
    </defs>
    <g id="Page-1" stroke="none" stroke-width="1" fill="none" fill-rule="evenodd">
        <g id="Logos_large" transform="translate(0.000000, -1005.000000)">
            <g transform="translate(0.000000, 1005.000000)">
                <g id="Logo">
                    <path d="M171.832386,145.125123 L86.0683543,145.125123 C77.1656207,145.125123 69.949558,137.924136 69.949558,129.040001 L69.949558,129.040001 C69.949558,120.155866 77.1656207,112.954878 86.0683543,112.954878 L171.832386,112.954878 C180.735119,112.954878 187.951182,120.155866 187.951182,129.040001 L187.951182,129.040001 C187.951182,137.924136 180.735119,145.125123 171.832386,145.125123" id="Fill-1" fill="#F6593B"></path>
                    <path d="M145.069166,86.2475692 L145.069166,171.832432 C145.069166,180.716567 137.853103,187.917555 128.95037,187.917555 L128.95037,187.917555 C120.047636,187.917555 112.831574,180.716567 112.831574,171.832432 L112.831574,86.2475692 C112.831574,77.3634343 120.047636,70.1624465 128.95037,70.1624465 L128.95037,70.1624465 C137.853103,70.1624465 145.069166,77.3634343 145.069166,86.2475692" id="Fill-3" fill="#F6593B"></path>
                    <g id="Group-7">
                        <mask id="mask-2" fill="white">
                            <use xlink:href="#path-1"></use>
                        </mask>
                        <g id="Clip-6"></g>
                        <path d="M134.323302,5.72072663 C134.323302,8.68210495 131.917948,11.0824342 128.95037,11.0824342 C125.982792,11.0824342 123.577438,8.68210495 123.577438,5.72072663 C123.577438,2.7593483 125.982792,0.359019055 128.95037,0.359019055 C131.917948,0.359019055 134.323302,2.7593483 134.323302,5.72072663" id="Fill-5" fill="#26ADF0" mask="url(#mask-2)"></path>
                    </g>
                    <path d="M134.323302,27.1675569 C134.323302,30.1289352 131.917948,32.5292645 128.95037,32.5292645 C125.982792,32.5292645 123.577438,30.1289352 123.577438,27.1675569 C123.577438,24.2061786 125.982792,21.8058493 128.95037,21.8058493 C131.917948,21.8058493 134.323302,24.2061786 134.323302,27.1675569" id="Fill-10" fill="#26ADF0"></path>
                    <g id="Group-14">
                        <mask id="mask-4" fill="white">
                            <use xlink:href="#path-3"></use>
                        </mask>
                        <g id="Clip-13"></g>
                        <path d="M203.600771,67.6782173 C222.876272,91.0020741 231.386996,123.513753 221.543785,157.645097 C212.321254,189.621463 186.407388,214.269876 154.070074,222.393935 C89.8080869,238.542541 32.2377644,190.499925 32.2377644,129.040172 C32.2377644,75.738794 75.5375793,32.5294361 128.950542,32.5294361 L128.950542,21.7095311 C128.950542,20.9408206 127.345474,21.1354698 126.500988,20.3517271 C125.396524,19.3267068 124.982026,17.3220376 124.982026,16.3166773 C124.982026,15.2445933 125.351866,13.682235 126.500988,12.6306059 C127.245575,11.9491905 128.950542,11.7817278 128.950542,11.0870584 L128.950542,0.359190629 C46.4154278,0.359190629 -18.0081771,77.7359228 4.55126032,163.761733 C16.2891827,208.522125 52.1975623,243.259127 97.3026824,253.963669 C175.283269,272.471426 245.38241,220.68162 256.351788,149.045776 C257.715223,137.929455 267.312569,135.868843 295.351538,146.592258 C297.596994,147.450131 299.845888,145.339763 299.106573,143.054389 C292.014302,121.128866 263.428584,45.8693645 208.256739,57.4815363 C200.476733,58.8198185 199.121895,62.1603768 203.600771,67.6782173 Z" id="Fill-12" fill="#26ADF0" mask="url(#mask-4)"></path>
                    </g>
                </g>
                <text id="doc-A-doc" font-family="Quicksand-Bold, Quicksand" font-size="136.810674" font-weight="bold" letter-spacing="1">
                    <tspan x="363.811498" y="166.529752" fill="#545D70">doc </tspan>
                    <tspan x="662.775311" y="166.529752" fill="#F6593B">A </tspan>
                    <tspan x="794.198208" y="166.529752" fill="#545D70">doc</tspan>
                </text>
            </g>
        </g>
    </g>
</svg>