<?xml version="1.0" encoding="UTF-8" standalone="no"?>
<svg width="101px" height="90px" viewBox="0 0 101 90" version="1.1" xmlns="http://www.w3.org/2000/svg" xmlns:xlink="http://www.w3.org/1999/xlink">
    <!-- Generator: Sketch 3.6.1 (26313) - http://www.bohemiancoding.com/sketch -->
    <title>DOCTOR</title>
    <desc>Created with Sketch.</desc>
    <defs></defs>
    <g id="Page-1" stroke="none" stroke-width="1" fill="none" fill-rule="evenodd">
        <g id="Logos" transform="translate(-441.000000, -74.000000)">
            <g id="DOCTOR" transform="translate(441.000000, 74.000000)">
                <path d="M45.2052178,46.9912379 C38.3666853,46.9912379 32.746947,36.6863248 32.746947,30.0362497 C32.746947,23.1977172 38.3666853,17.5764342 45.2052178,17.5764342 C52.0437503,17.5764342 57.6634885,23.1977172 57.6634885,30.0362497 C57.6634885,36.7805535 52.0437503,46.9912379 45.2052178,46.9912379 M45.2052178,81.8388672 C37.2421197,81.8388672 29.6543918,79.4028234 23.2854581,74.6249646 C23.1912293,73.9699979 23.1912293,73.4077151 23.1912293,72.8454323 C23.1912293,62.5420639 33.0280884,54.0166831 45.2052178,54.0166831 C57.3823471,54.0166831 67.2192062,62.5420639 67.2192062,72.8454323 C67.2192062,73.4077151 67.2192062,73.9699979 67.1249775,74.6249646 C60.7560438,79.3101395 53.1683158,81.8388672 45.2052178,81.8388672 M17.6162884,80.0176271 L17.6162884,80.0176271 L18.1414975,80.4393392 C24.1427848,84.9669513 31.0909933,87.9143017 38.3558721,88.9662648 L38.460914,88.9662648 C39.0927097,89.0728513 39.7245055,89.1778932 40.4613431,89.1778932 L40.8830551,89.1778932 C41.4098091,89.1778932 41.9350182,89.282935 42.566814,89.282935 L43.0935679,89.282935 C43.8304055,89.282935 44.4622012,89.3879768 45.1990388,89.3879768 C45.9358764,89.3879768 46.5676722,89.3879768 47.3045098,89.282935 L47.8312637,89.282935 C48.3580176,89.282935 48.8847715,89.1778932 49.5165673,89.1778932 L49.9367346,89.1778932 C50.5685304,89.0728513 51.2003261,89.0728513 51.9371637,88.9662648 L52.0422055,88.9662648 C59.3070843,87.8092598 66.2552929,84.9669513 72.2565801,80.4393392 L72.783334,80.0176271 C83.2056469,71.8058271 90.0488136,59.0664149 90.0488136,44.7482858 C89.9437717,20.1128856 69.8359837,0.00355288565 45.1990388,0.00355288565 C20.5636387,0.00355288565 0.454305943,20.1128856 0.454305943,44.7482858 C0.454305943,59.0664149 7.19243081,71.8058271 17.6162884,80.0176271" id="Fill-29" fill="#98A1B3"></path>
                <g id="Group-7" transform="translate(66.075949, 11.392405)">
                    <path d="M34.1136767,19.7143329 L33.4998827,17.9046661 C33.3481487,17.4571786 33.3472915,16.7233677 33.4998827,16.2733085 L34.1136767,14.4627844 C34.2654107,14.0152969 34.1359654,13.3569245 33.8222103,12.9994489 L32.5629038,11.561831 C32.2517205,11.2069272 31.9696839,10.5296951 31.9388227,10.0547755 L31.8128064,8.1473815 C31.7819452,7.67589086 31.4107541,7.11781738 30.9838415,6.90693248 L29.2701903,6.06082108 C28.8467067,5.85165069 28.3272106,5.33386823 28.1163261,4.90781214 L27.2702162,3.1933007 C27.0610461,2.76981637 26.5046881,2.39605288 26.0297693,2.36433442 L24.1223786,2.23917508 C23.6508888,2.20745662 22.9728007,1.92799126 22.6153257,1.61423566 L21.1777103,0.354927013 C20.8228071,0.0437431873 20.1652931,-0.0891314491 19.7143773,0.0634600689 L17.9038564,0.677255164 C17.4572269,0.828989426 16.7234173,0.829846682 16.2733588,0.677255164 L14.4628379,0.0634600689 C14.0153512,-0.0882741934 13.3569799,0.0411714202 12.9995049,0.354927013 L11.5618895,1.61423566 C11.206129,1.92541949 10.5297554,2.20745662 10.0548366,2.23917508 L8.1474459,2.36433442 C7.67595607,2.39605288 7.11702631,2.76724461 6.90699902,3.1933007 L6.06088909,4.90781214 C5.85171906,5.33129646 5.3339375,5.84993617 4.90702489,6.06082108 L3.19337367,6.90693248 C2.76989007,7.11610287 2.39612723,7.67331909 2.36440882,8.1473815 L2.23839245,10.0547755 C2.2075313,10.5262661 1.92806641,11.2043554 1.61431136,11.561831 L0.355004889,12.9994489 C0.0429643471,13.35521 -0.0890528054,14.0127251 0.0635384488,14.4627844 L0.677332482,16.2733085 C0.829066482,16.7207959 0.829923737,17.4537496 0.677332482,17.9046661 L0.0635384488,19.7143329 C-0.0881955512,20.1618204 0.0412498386,20.8201928 0.355004889,21.1776684 L1.61431136,22.6152863 C1.92549465,22.9710474 2.2075313,23.6482794 2.23839245,24.1223418 L2.36440882,26.0297358 C2.39526997,26.5012264 2.76646106,27.0601572 3.19337367,27.2701848 L4.90702489,28.1162962 C5.33050848,28.3254666 5.85000455,28.8432491 6.06088909,29.2701624 L6.90699902,30.9838166 C7.11616906,31.4073009 7.67252706,31.7819217 8.1474459,31.8127829 L10.0548366,31.9387995 C10.5263264,31.9696607 11.2044145,32.2499833 11.5618895,32.5628816 L12.9995049,33.8230475 C13.3544081,34.1342314 14.0119221,34.2662488 14.4628379,34.1136572 L16.2733588,33.4998621 C16.7199883,33.3481279 17.4537979,33.3472706 17.9038564,33.4998621 L19.7143773,34.1136572 C20.161864,34.2653915 20.8202353,34.1359459 21.1777103,33.8230475 L22.6153257,32.5628816 C22.9710862,32.2516978 23.6474598,31.9705179 24.1223786,31.9387995 L26.0297693,31.8127829 C26.5012591,31.7819217 27.0601889,31.41073 27.2702162,30.9838166 L28.1163261,29.2701624 C28.3254961,28.8466781 28.8432777,28.3271811 29.2701903,28.1162962 L30.9838415,27.2701848 C31.4073251,27.0618717 31.781088,26.5046555 31.8128064,26.0297358 L31.9388227,24.1223418 C31.9696839,23.6517084 32.2491488,22.9736192 32.5629038,22.6152863 L33.8222103,21.1776684 C34.1342508,20.8227646 34.266268,20.1652494 34.1136767,19.7143329" id="Fill-4-Copy" fill="#26ADF0"></path>
                    <path d="M15.7027599,22.1433024 C15.4936767,22.3782724 15.2056066,22.4831461 14.9175366,22.4831461 C14.6819032,22.4831461 14.4469336,22.4048227 14.2630732,22.2475123 L10.1537599,18.9758534 C9.70904345,18.6094595 9.63072024,17.954995 9.99711354,17.5102777 C10.3635068,17.0648967 11.0179702,16.9865734 11.4626867,17.3529673 L14.7867766,20.0225984 L20.6762834,13.3744071 C21.0685631,12.9296899 21.7230265,12.9031396 22.1418565,13.2960838 C22.5872368,13.6624777 22.6396735,14.3169422 22.24673,14.7616595 L15.7027599,22.1433024 Z" id="Fill-7" fill="#FFFFFF"></path>
                </g>
            </g>
        </g>
    </g>
</svg>