<?xml version="1.0" encoding="UTF-8" standalone="no"?>
<svg width="90px" height="90px" viewBox="0 0 90 90" version="1.1" xmlns="http://www.w3.org/2000/svg" xmlns:xlink="http://www.w3.org/1999/xlink" xmlns:sketch="http://www.bohemiancoding.com/sketch/ns">
    <!-- Generator: Sketch 3.3.3 (12081) - http://www.bohemiancoding.com/sketch -->
    <title>search_users</title>
    <desc>Created with Sketch.</desc>
    <defs></defs>
    <g id="Page-1" stroke="none" stroke-width="1" fill="none" fill-rule="evenodd" sketch:type="MSPage">
        <g id="search_users" sketch:type="MSLayerGroup" fill="#808080">
            <g id="Group" sketch:type="MSShapeGroup">
                <path d="M26.756,33.443 C35.988,33.443 42.266,25.955 42.266,16.721 C42.266,7.486 35.988,0 26.756,0 C17.522,0 11.244,7.486 11.244,16.721 C11.244,25.955 17.521,33.443 26.756,33.443 L26.756,33.443 Z" id="Shape"></path>
                <path d="M66.93,34.995 C74.869,34.995 80.266,28.556 80.266,20.613 C80.266,12.673 74.87,6.233 66.93,6.233 C58.987,6.233 53.591,12.672 53.591,20.613 C53.591,28.556 58.986,34.995 66.93,34.995 L66.93,34.995 Z" id="Shape"></path>
                <path d="M31.005,69.227 C27.096,61.331 28.419,51.484 34.983,44.92 C38.309,41.594 42.558,39.523 47.155,38.927 C45.102,36.405 42.602,34.259 39.762,32.629 C36.345,35.752 31.834,37.599 26.756,37.599 C21.676,37.599 17.165,35.752 13.748,32.629 C5.819,37.182 0.459,45.69 0.459,55.489 C0.662,59.753 2.119,64.534 4.486,67.266 C5.754,68.809 19.211,69.427 31.005,69.227 L31.005,69.227 Z" id="Shape"></path>
                <path d="M64.839,44.92 C70.477,50.555 72.251,58.611 70.167,65.775 C78.366,65.651 85.743,65.073 86.076,64.084 C88.117,61.732 89.364,57.621 89.541,53.953 C89.541,45.526 84.93,38.21 78.113,34.293 C75.175,36.979 71.296,38.568 66.929,38.568 C62.559,38.568 58.679,36.979 55.742,34.293 C53.73,35.449 51.921,36.904 50.354,38.592 C50.393,38.647 50.431,38.703 50.469,38.759 C55.905,38.899 60.988,41.07 64.839,44.92 L64.839,44.92 Z" id="Shape"></path>
                <path d="M36.943,72.814 C43.229,79.1 52.981,79.855 60.104,75.088 L71.322,88.14 C73.213,90.465 76.462,90.631 78.582,88.515 C80.698,86.396 80.53,83.145 78.207,81.257 L65.154,70.039 C69.922,62.915 69.167,53.164 62.881,46.878 C55.728,39.728 44.094,39.728 36.943,46.877 C29.793,54.028 29.793,65.664 36.943,72.814 L36.943,72.814 Z M59.396,50.684 C64.539,55.825 64.542,64.189 59.396,69.331 C54.257,74.472 45.889,74.472 40.748,69.331 C35.608,64.188 35.608,55.824 40.748,50.682 C45.889,45.541 54.254,45.542 59.396,50.684 L59.396,50.684 Z" id="Shape"></path>
            </g>
        </g>
    </g>
</svg>