<?xml version="1.0" encoding="UTF-8" standalone="no"?>
<svg width="88px" height="89px" viewBox="0 0 88 89" version="1.1" xmlns="http://www.w3.org/2000/svg" xmlns:xlink="http://www.w3.org/1999/xlink">
    <!-- Generator: Sketch 3.6.1 (26313) - http://www.bohemiancoding.com/sketch -->
    <title>TRUST</title>
    <desc>Created with Sketch.</desc>
    <defs></defs>
    <g id="Page-1" stroke="none" stroke-width="1" fill="none" fill-rule="evenodd">
        <g id="Logos" transform="translate(-654.000000, -73.000000)" fill="#98A1B3">
            <g id="TRUST" transform="translate(653.000000, 73.000000)">
                <path d="M88.5234742,51.3430473 L86.9503081,46.6442124 C86.5614109,45.4823025 86.5592138,43.5769483 86.9503081,42.4083608 L88.5234742,37.7073001 C88.9123714,36.5453902 88.5806004,34.8359135 87.77644,33.9077211 L84.548813,30.1749186 C83.7512441,29.2534039 83.0283787,27.4949579 82.949281,26.2618198 L82.6262985,21.3092345 C82.5472008,20.0849999 81.5958308,18.6359514 80.5016454,18.0883846 L76.1095239,15.89144 C75.0241272,15.3483251 73.6926486,14.0038929 73.1521474,12.8976301 L70.9835512,8.44586799 C70.4474443,7.34628276 69.0214879,6.37579863 67.8042616,6.29344103 L62.9155821,5.9684624 C61.7071444,5.8861048 59.9691914,5.16046759 59.0529759,4.34579513 L55.3683397,1.07597589 C54.4587157,0.267981073 52.7734945,-0.0770304874 51.6177887,0.319176337 L46.9773882,1.91290716 C45.8326682,2.3068881 43.9518998,2.30911398 42.7983911,1.91290716 L38.1579906,0.319176337 C37.0110734,-0.0748046064 35.323655,0.26130343 34.4074396,1.07597589 L30.7228033,4.34579513 C29.8109822,5.15378994 28.0774235,5.8861048 26.8601972,5.9684624 L21.9715177,6.29344103 C20.76308,6.37579863 19.3305321,7.33960512 18.7922281,8.44586799 L16.6236318,12.8976301 C16.0875249,13.9972153 14.7604407,15.3438733 13.6662553,15.89144 L9.27413382,18.0883846 C8.1887371,18.6314996 7.23077563,20.0783223 7.14948073,21.3092345 L6.82649831,26.2618198 C6.74740057,27.4860544 6.03112663,29.2467263 5.22696631,30.1749186 L1.99933923,33.9077211 C1.19957323,34.8314618 0.86121069,36.5387125 1.25230505,37.7073001 L2.82547114,42.4083608 C3.21436835,43.5702707 3.21656551,45.473399 2.82547114,46.6442124 L1.25230505,51.3430473 C0.863407849,52.5049572 1.19517891,54.2144338 1.99933923,55.1426262 L5.22696631,58.8754287 C6.02453515,59.7991693 6.74740057,61.5576153 6.82649831,62.7885276 L7.14948073,67.7411129 C7.22857847,68.9653474 8.17994847,70.4166219 9.27413382,70.9619627 L13.6662553,73.1589073 C14.7516521,73.7020223 16.0831306,75.0464544 16.6236318,76.1549432 L18.7922281,80.6044793 C19.328335,81.7040646 20.7542914,82.6767746 21.9715177,82.7569063 L26.8601972,83.0841108 C28.0686349,83.1642425 29.8065879,83.8921056 30.7228033,84.7045522 L34.4074396,87.9765973 C35.3170635,88.7845921 37.0022847,89.1273778 38.1579906,88.731171 L42.7983911,87.1374402 C43.9431111,86.7434592 45.8238795,86.7412334 46.9773882,87.1374402 L51.6177887,88.731171 C52.7647059,89.1251519 54.4521243,88.7890439 55.3683397,87.9765973 L59.0529759,84.7045522 C59.9647971,83.8965574 61.6983558,83.1664684 62.9155821,83.0841108 L67.8042616,82.7569063 C69.0126992,82.6767746 70.4452471,81.7129681 70.9835512,80.6044793 L73.1521474,76.1549432 C73.6882543,75.0553579 75.0153386,73.706474 76.1095239,73.1589073 L80.5016454,70.9619627 C81.5870422,70.4210736 82.5450036,68.9742509 82.6262985,67.7411129 L82.949281,62.7885276 C83.0283787,61.5665189 83.7446526,59.805847 84.548813,58.8754287 L87.77644,55.1426262 C88.576206,54.2211115 88.9145686,52.5138607 88.5234742,51.3430473 Z M60.5447232,36.762402 L43.7724,55.9289804 C43.2365159,56.5390846 42.4981866,56.811391 41.7598573,56.811391 C41.1559244,56.811391 40.5536927,56.608023 40.0824549,56.1995634 L29.5502049,47.704638 C28.4103878,46.7532891 28.2096439,45.0539593 29.1487171,43.8992423 C30.0877902,42.7428019 31.7651927,42.5394338 32.9050098,43.4907828 L41.4247171,50.4225316 L56.5196378,33.1603744 C57.5250585,32.0056574 59.202461,31.9367191 60.2759305,32.9570064 C61.4174488,33.9083553 61.5518451,35.607685 60.5447232,36.762402 Z" id="Fill-4"></path>
            </g>
        </g>
    </g>
</svg>